<?xml version="1.0" standalone="no"?>
<!DOCTYPE svg PUBLIC "-//W3C//DTD SVG 20010904//EN"
 "http://www.w3.org/TR/2001/REC-SVG-20010904/DTD/svg10.dtd">
<svg version="1.0" xmlns="http://www.w3.org/2000/svg"
 width="1280.000000pt" height="1280.000000pt" viewBox="0 0 1280.000000 1280.000000"
 preserveAspectRatio="xMidYMid meet">
<metadata>
Created by potrace 1.15, written by Peter Selinger 2001-2017
</metadata>
<g transform="translate(0.000000,1280.000000) scale(0.100000,-0.100000)"
fill="#f44336" stroke="none">
<path d="M3040 12793 c-30 -2 -118 -10 -195 -18 -1499 -164 -2528 -1105 -2779
-2541 -48 -276 -60 -426 -60 -759 0 -474 44 -847 163 -1377 204 -904 617
-1712 1335 -2608 347 -433 823 -942 1466 -1568 699 -681 1453 -1426 1649
-1632 739 -775 1298 -1484 1700 -2158 41 -67 77 -122 81 -122 4 0 40 55 81
122 402 674 961 1383 1700 2158 196 206 950 951 1649 1632 643 626 1119 1135
1466 1568 718 896 1131 1704 1335 2608 119 530 163 903 163 1377 0 333 -12
483 -60 759 -235 1350 -1156 2263 -2524 2505 -192 34 -374 51 -600 58 -759 21
-1392 -158 -1894 -536 -118 -89 -333 -300 -430 -421 -288 -361 -527 -856 -697
-1444 -48 -165 -138 -539 -164 -678 -10 -54 -22 -98 -25 -98 -3 0 -15 44 -25
98 -26 139 -116 513 -164 678 -170 588 -409 1083 -697 1444 -97 121 -312 332
-430 421 -484 364 -1093 545 -1813 537 -97 -1 -201 -3 -231 -5z"/>
</g>
</svg>
