<?xml version="1.0" standalone="no"?>
<!DOCTYPE svg PUBLIC "-//W3C//DTD SVG 20010904//EN"
 "http://www.w3.org/TR/2001/REC-SVG-20010904/DTD/svg10.dtd">
<svg version="1.0" xmlns="http://www.w3.org/2000/svg"
 width="870.000000pt" height="1280.000000pt" viewBox="0 0 870.000000 1280.000000"
 preserveAspectRatio="xMidYMid meet">
<metadata>
Created by potrace 1.15, written by Peter Selinger 2001-2017
</metadata>
<g transform="translate(0.000000,1280.000000) scale(0.100000,-0.100000)"
fill="#f44336" stroke="none">
<path d="M5410 12791 c-78 -25 -123 -66 -169 -155 -79 -149 -18 -304 257 -654
57 -73 102 -135 100 -137 -2 -2 -222 20 -488 50 -267 30 -867 97 -1334 150
-467 52 -851 93 -854 90 -2 -2 162 -426 366 -942 267 -676 367 -939 357 -941
-13 -3 -681 71 -750 83 -25 5 -4 -19 130 -147 88 -84 185 -177 215 -206 l55
-54 -105 55 c-58 30 -230 121 -383 201 -152 80 -279 146 -282 146 -3 0 -5 -88
-5 -195 l0 -195 -152 0 -151 0 6 -137 c3 -76 43 -1182 88 -2458 45 -1276 83
-2321 85 -2323 1 -2 60 15 132 37 71 23 132 41 136 41 3 0 6 -303 6 -673 0
-410 4 -706 11 -757 45 -368 191 -679 468 -996 l71 -81 -155 -326 c-85 -178
-155 -329 -155 -333 1 -5 71 -50 156 -101 l155 -92 147 297 c81 163 147 298
148 300 1 1 44 -27 97 -63 l96 -65 -91 -263 c-49 -144 -101 -293 -114 -332
l-25 -70 33 -29 c18 -15 92 -82 165 -147 l132 -119 19 53 c18 47 160 492 211
657 12 42 24 64 33 62 7 -2 54 -19 104 -39 l90 -35 -23 -131 c-13 -73 -53
-291 -89 -485 l-66 -354 168 -163 c93 -89 171 -161 173 -159 2 1 47 267 101
589 54 322 100 588 102 590 2 2 42 -3 87 -13 l84 -17 -7 -110 c-4 -60 -27
-377 -51 -704 -25 -327 -44 -595 -43 -596 2 -1 48 -35 103 -76 144 -108 235
-172 239 -168 2 2 28 363 59 802 30 439 57 800 60 803 2 3 38 1 78 -3 l74 -8
5 -860 5 -860 90 -12 c106 -14 215 -16 232 -5 10 6 13 197 15 878 l3 869 75 5
c41 3 76 5 77 5 1 -1 23 -300 48 -666 63 -934 67 -984 71 -988 5 -5 153 93
262 173 l83 61 -6 70 c-14 151 -103 1400 -100 1403 4 5 168 43 170 40 1 -2 19
-113 39 -248 50 -323 163 -1001 169 -1006 2 -3 79 74 171 170 l167 175 -60
323 c-82 440 -123 677 -119 694 2 13 186 99 194 92 1 -2 21 -66 44 -143 54
-183 176 -564 202 -633 l20 -54 107 104 c58 57 132 127 163 155 l58 51 -94
269 c-82 235 -146 430 -146 446 0 6 168 127 176 127 2 0 43 -79 89 -176 47
-97 119 -241 161 -320 l76 -145 31 21 c18 12 87 53 154 93 67 40 123 76 123
81 0 4 -77 168 -170 364 l-170 355 37 45 c236 280 376 562 435 877 19 103 21
155 25 832 l5 721 21 5 c12 3 72 13 132 23 61 9 111 18 113 20 5 3 201 4778
196 4783 -2 2 -211 -22 -464 -54 -253 -32 -463 -55 -466 -53 -2 3 63 119 146
258 83 139 149 254 148 256 -2 1 -181 -119 -397 -267 -285 -194 -403 -269
-423 -269 -15 0 -28 2 -28 5 0 3 259 384 575 847 317 462 574 843 571 845 -4
4 -210 28 -1641 188 -522 58 -970 109 -995 113 l-45 8 80 64 c276 225 370 321
428 440 27 55 32 75 31 135 -2 115 -47 195 -136 239 -125 62 -271 13 -338
-113 -16 -30 -19 -32 -20 -13 -1 63 -62 147 -134 184 -43 22 -136 32 -176 19z"/>
<path d="M752 10356 c-185 -454 -202 -500 -202 -555 l0 -60 -112 -35 c-62 -19
-184 -56 -271 -83 -100 -30 -151 -50 -140 -54 10 -3 132 -25 270 -49 139 -24
256 -46 261 -49 5 -3 12 -27 15 -53 5 -39 3 -49 -11 -56 -9 -5 -134 -45 -276
-88 -228 -69 -256 -79 -225 -86 19 -3 145 -26 281 -49 272 -47 258 -41 258
-119 l0 -35 -263 -79 c-144 -44 -265 -82 -270 -86 -4 -3 119 -28 273 -55 l281
-48 -3 -56 -3 -56 -262 -80 c-145 -44 -263 -82 -263 -85 0 -3 114 -25 253 -49
138 -23 262 -45 273 -48 17 -4 23 -14 27 -56 4 -28 3 -54 -2 -57 -5 -3 -127
-41 -270 -84 -144 -44 -259 -82 -256 -85 3 -2 125 -26 270 -51 146 -26 268
-50 272 -54 4 -4 72 -1041 150 -2304 l142 -2296 -63 -66 c-154 -164 -225 -357
-213 -584 5 -98 14 -149 41 -233 8 -25 -4 -28 -175 -38 l-96 -6 -8 150 c-4 83
-10 152 -13 154 -11 6 -382 -20 -389 -26 -6 -7 31 -634 38 -641 3 -3 207 7
455 22 l449 29 40 -27 c22 -15 68 -42 102 -59 l63 -31 0 -49 c0 -92 11 -141
31 -141 14 0 19 -7 19 -30 0 -24 -4 -30 -21 -30 -19 0 -21 -4 -15 -31 3 -17 6
-62 6 -100 0 -61 2 -69 19 -69 11 0 21 -9 25 -22 9 -34 8 -35 -15 -41 -21 -6
-22 -10 -16 -74 4 -37 7 -83 7 -100 0 -26 4 -33 20 -33 16 0 20 -7 20 -30 0
-20 -5 -30 -15 -30 -12 0 -15 -14 -15 -62 0 -98 9 -138 31 -138 14 0 19 -7 19
-30 0 -24 -4 -30 -21 -30 -20 0 -21 -4 -15 -46 3 -26 6 -71 6 -100 0 -46 3
-54 19 -54 12 0 20 -9 24 -27 5 -26 -2 -37 -27 -46 -5 -2 -6 -45 -1 -100 6
-86 9 -97 26 -97 16 0 19 -7 19 -47 0 -27 4 -53 8 -60 6 -10 62 -9 262 3 140
8 269 17 286 20 l30 4 -4 59 c-4 59 -4 59 23 63 l28 3 -2 88 c-3 106 -6 116
-33 109 -22 -5 -38 12 -38 41 0 12 10 20 31 24 l32 6 -7 60 c-3 33 -6 77 -6
98 0 37 -2 39 -30 39 -27 0 -30 3 -30 30 0 25 4 30 25 30 24 0 25 3 25 54 0
29 -3 74 -6 100 -6 43 -9 46 -35 46 -26 0 -29 4 -29 30 0 25 4 30 24 30 14 0
27 3 29 7 2 5 1 51 -2 103 l-6 95 -26 -3 c-22 -3 -27 2 -32 25 -7 36 -2 43 30
43 l26 0 -7 77 c-3 42 -6 87 -6 100 0 19 -5 23 -30 23 -27 0 -30 3 -30 30 0
26 4 30 26 30 l27 0 -5 104 -6 103 30 18 c17 9 55 37 84 61 l54 45 450 28
c248 15 452 30 454 32 3 4 -34 642 -38 646 -1 1 -89 -3 -196 -10 l-195 -12 3
-110 c1 -60 5 -129 8 -152 l5 -41 -53 -6 c-29 -3 -93 -8 -142 -11 l-89 -6 7
23 c15 47 19 255 7 323 -34 191 -158 389 -323 510 l-26 20 -201 3249 -200
3249 -263 468 c-145 257 -265 468 -268 469 -3 0 -96 -223 -208 -494z m1228
-7351 c48 -97 63 -175 57 -290 -6 -122 -22 -174 -55 -186 -14 -5 -27 -8 -29
-5 -3 2 -11 103 -18 223 -8 120 -16 252 -19 293 l-6 75 20 -25 c11 -14 34 -52
50 -85z m-995 -219 c20 -337 21 -326 -10 -326 -67 0 -119 272 -80 422 16 65
66 178 71 163 2 -5 10 -122 19 -259z"/>
</g>
</svg>
