<?xml version="1.0" encoding="UTF-8" standalone="no"?>
<svg
   xmlns:dc="http://purl.org/dc/elements/1.1/"
   xmlns:cc="http://creativecommons.org/ns#"
   xmlns:rdf="http://www.w3.org/1999/02/22-rdf-syntax-ns#"
   xmlns:svg="http://www.w3.org/2000/svg"
   xmlns="http://www.w3.org/2000/svg"
   xmlns:sodipodi="http://sodipodi.sourceforge.net/DTD/sodipodi-0.dtd"
   xmlns:inkscape="http://www.inkscape.org/namespaces/inkscape"
   version="1.0"
   width="907.000000pt"
   height="1280.000000pt"
   viewBox="0 0 1100.000000 1280.000000"
   preserveAspectRatio="xMidYMid meet"
   id="svg3739"
   sodipodi:docname="king-black.svg"
   inkscape:version="0.92.4 (5da689c313, 2019-01-14)">
  <defs
     id="defs3743" />
  <sodipodi:namedview
     pagecolor="#ffffff"
     bordercolor="#666666"
     borderopacity="1"
     objecttolerance="10"
     gridtolerance="10"
     guidetolerance="10"
     inkscape:pageopacity="0"
     inkscape:pageshadow="2"
     inkscape:window-width="1920"
     inkscape:window-height="1001"
     id="namedview3741"
     showgrid="false"
     inkscape:zoom="0.4734375"
     inkscape:cx="1085.0094"
     inkscape:cy="939.85661"
     inkscape:window-x="-9"
     inkscape:window-y="-9"
     inkscape:window-maximized="1"
     inkscape:current-layer="g3737" />
  <metadata
     id="metadata3729">
Created by potrace 1.15, written by Peter Selinger 2001-2017
<rdf:RDF>
  <cc:Work
     rdf:about="">
    <dc:format>image/svg+xml</dc:format>
    <dc:type
       rdf:resource="http://purl.org/dc/dcmitype/StillImage" />
  </cc:Work>
</rdf:RDF>
</metadata>
  <g
     transform="translate(0.000000,1280.000000) scale(0.100000,-0.100000)"
     id="g3737"
     stroke="none"
     fill="#f44336">
    <path
       d="m 6714,12137 c -3,-3 -22,-75 -42,-160 -21,-86 -41,-159 -44,-163 -4,-3 -77,11 -163,31 -90,22 -160,34 -164,29 -5,-5 -22,-66 -38,-137 l -30,-127 26,-6 c 98,-23 293,-73 297,-77 3,-3 2,-21 -1,-41 -9,-43 -10,-43 -135,-11 -52,14 -100,25 -106,25 -11,0 -39,-88 -31,-97 2,-2 51,-15 108,-28 57,-14 109,-27 116,-30 9,-3 8,-17 -2,-60 -7,-31 -15,-58 -18,-61 -2,-3 -32,2 -65,10 -33,9 -62,16 -66,16 -8,0 -28,-81 -23,-95 3,-6 33,-17 66,-24 34,-7 61,-16 61,-20 0,-23 -24,-121 -29,-121 -4,0 -62,14 -130,30 -95,23 -126,28 -132,18 -4,-6 -13,-40 -20,-75 -7,-35 -17,-63 -23,-63 -31,2 -161,39 -160,46 1,5 18,79 39,164 26,109 34,159 27,170 -7,11 -4,22 9,41 10,15 20,37 21,49 29.5446,52.108 -266.3317,125.544 -276,90 -4,0 -6,-26 -4,-59 3,-47 1,-58 -11,-57 -11,1 -25,-40 -54,-164 -22,-91 -41,-167 -43,-169 -4,-5 -187,40 -197,49 -4,3 11,80 33,170 36,146 38,165 24,173 -14,8 -13,11 4,30 12,12 25,34 31,49 35.8758,51.986 -190.9042,106.11 -282,91 -5,-3 -7,-29 -3,-59 5,-44 4,-52 -8,-48 -11,4 -23,-30 -52,-155 -21,-89 -41,-166 -45,-172 -5,-9 -33,-5 -100,11 -52,13 -97,24 -100,26 -3,2 12,78 34,169 33,134 38,168 28,175 -11,6 -10,14 6,36 11,16 23,39 27,51 100.0297,67.33 -279.3646,126.654 -283,93 -2,0 -1,-27 1,-60 4,-50 2,-60 -11,-58 -12,2 -24,-34 -55,-164 -31,-129 -43,-168 -55,-168 -9,0 -56,11 -105,23 l -89,23 -27,114 c -15,63 -49,205 -76,315 l -48,200 -12,-43 c -7,-23 -16,-62 -20,-87 -5,-40 -4,-45 12,-45 35,0 46,-14 35,-43 -9,-23 -13,-25 -40,-17 -25,7 -31,5 -36,-11 -3,-10 -7,-28 -10,-38 -5,-15 1,-21 25,-26 25,-6 30,-11 30,-36 0,-28 -2,-30 -37,-27 -32,3 -37,0 -44,-26 -10,-35 -4,-46 21,-46 24,0 33,-15 26,-45 -5,-21 -9,-23 -36,-15 -28,8 -32,6 -40,-16 -16,-41 -12,-54 20,-60 30,-7 38,-26 21,-53 -6,-9 -18,-11 -38,-7 -26,6 -31,4 -37,-16 -11,-44 -7,-55 24,-62 27,-5 30,-8 24,-33 -9,-36 -5,-34 -42,-24 -30,9 -32,8 -41,-27 -6,-20 -9,-37 -8,-38 1,0 16,-6 32,-11 30,-10 31,-13 22,-67 -1,-5 27,-16 63,-25 55,-14 65,-19 62,-36 -2,-11 -39,-168 -83,-350 -43,-181 -81,-340 -84,-351 -5,-21 -6,-21 -180,21 -97,23 -177,39 -179,36 -10,-18 -68,-273 -63,-277 3,-3 71,-21 152,-41 l 147,-35 -20,-22 c -67,-73 -54,-123 41,-146 26,-7 47,-16 47,-20 0,-11 -110,-58 -180,-76 -39,-10 -87,-14 -123,-12 -74,6 -100,31 -117,115 -25,127 -32,149 -52,171 -45,48 -98,13 -98,-64 0,-23 9,-93 20,-155 11,-63 20,-155 20,-205 0,-77 -4,-98 -26,-142 -51,-102 -224,-222 -321,-222 -78,0 -135,48 -168,139 -19,55 -19,94 0,131 29,56 77,63 187,28 65,-21 69,-21 85,-5 12,11 17,32 17,58 -3,82 -93,130 -204,109 -135,-26 -211,-112 -240,-272 -22,-120 10,-215 109,-320 69,-74 74,-97 34,-135 -40,-37 -96,-58 -219,-83 -142,-29 -193,-51 -249,-111 -78,-83 -138,-235 -121,-304 8,-30 88,-85 124,-85 36,0 61,16 143,96 130,126 199,130 199,14 0,-62 -27,-100 -115,-167 -190,-145 -286,-280 -272,-385 6,-47 41,-88 74,-88 16,0 33,13 55,45 18,25 35,45 40,45 22,0 33,-52 33,-155 0,-138 -4,-145 -145,-290 -59,-60 -113,-120 -119,-132 -24,-47 -14,-80 43,-142 91,-99 96,-115 96,-299 0,-108 5,-174 14,-206 19,-62 71,-142 107,-163 l 29,-17 3,-1691 3,-1690 22,-96 c 66,-289 199,-560 392,-804 74,-93 237,-259 327,-332 l 61,-51 -76,-27 c -109,-39 -249,-108 -307,-152 -63,-48 -112,-113 -121,-159 -24,-126 128,-260 411,-365 50,-18 91,-33 92,-34 1,0 -13,-61 -32,-135 -19,-74 -35,-136 -35,-137 0,-2 20,-8 45,-14 25,-6 45,-13 45,-15 0,-3 -16,-19 -36,-36 -47,-42 -64,-77 -64,-138 0,-67 19,-109 68,-151 l 40,-34 -19,-24 c -12,-15 -19,-39 -19,-68 0,-38 5,-50 34,-79 28,-28 42,-34 76,-34 34,0 48,6 76,34 28,28 34,41 34,78 0,24 -7,54 -16,66 -9,13 -14,24 -13,26 107,68 146,169 100,259 -12,24 -15,37 -7,37 7,0 26,57 45,135 18,74 36,135 40,135 3,0 61,-10 129,-22 122,-22 123,-22 118,-48 -3,-14 -13,-76 -21,-139 -18,-125 -17,-131 38,-131 34,0 34,-5 -2,-36 -88,-74 -79,-235 17,-299 l 30,-19 -19,-24 c -41,-53 -14,-145 51,-172 103,-43 205,91 132,174 -13,14 -14,20 -4,23 29,11 76,60 93,98 26,56 24,113 -6,169 -23,43 -23,46 -6,46 21,0 20,-3 47,178 14,94 20,112 33,108 9,-2 52,-7 96,-11 44,-3 93,-8 109,-11 l 28,-6 -7,-127 c -3,-69 -8,-133 -11,-143 -4,-12 5,-18 37,-23 33,-6 39,-9 26,-17 -9,-5 -29,-30 -44,-55 -49,-84 -33,-176 42,-242 35,-31 36,-33 21,-56 -20,-30 -21,-87 -2,-124 34,-65 138,-69 188,-7 22,26 23,99 3,130 -15,22 -14,24 23,49 52,34 77,87 77,159 -1,48 -6,65 -32,102 l -32,45 28,-5 28,-6 7,99 c 4,54 9,122 13,152 l 6,54 96,-7 c 53,-3 113,-6 134,-6 h 37 V 685 540 h 36 36 l -31,-35 c -72,-83 -62,-201 24,-272 l 35,-29 -21,-42 c -18,-35 -19,-47 -10,-75 32,-95 150,-114 205,-35 21,30 20,97 -1,128 -14,20 -14,24 -2,28 8,3 30,22 50,43 70,72 73,180 8,254 l -31,35 h 36 36 v 145 145 h 38 c 20,0 80,3 133,6 l 97,7 6,-69 c 3,-38 8,-107 12,-153 l 6,-83 31,6 31,6 -22,-23 c -67,-72 -67,-189 1,-260 18,-19 38,-36 44,-38 10,-3 7,-15 -8,-47 -19,-38 -20,-48 -10,-82 16,-53 52,-80 108,-80 38,0 50,5 79,34 27,27 34,42 34,73 0,21 -7,49 -16,61 -15,23 -15,25 25,59 54,46 72,83 72,148 0,58 -19,105 -57,140 l -25,23 38,6 38,7 -9,140 c -5,77 -6,142 -3,146 5,5 238,33 244,29 0,-1 8,-53 17,-116 24,-165 25,-170 45,-170 17,0 16,-4 -5,-47 -44,-85 -24,-181 50,-239 l 34,-27 -20,-34 c -52,-88 41,-199 134,-160 67,29 95,96 64,158 l -16,32 41,35 c 23,20 48,51 55,69 31,73 7,176 -51,221 -32,25 -32,32 3,32 54,0 55,5 32,155 -11,76 -19,139 -18,140 7,5 249,47 252,44 1,-2 18,-62 36,-134 18,-71 37,-133 42,-136 5,-3 2,-22 -7,-42 -31,-75 -7,-170 55,-219 32,-25 32,-25 16,-56 -26,-50 -20,-87 18,-130 30,-32 40,-37 80,-37 36,0 51,6 75,29 38,37 49,87 28,130 -15,32 -15,32 25,65 48,40 68,84 68,146 0,63 -20,105 -70,148 -24,20 -37,37 -29,37 8,0 30,5 50,10 l 37,10 -35,136 c -18,75 -33,137 -31,138 2,2 44,17 93,36 283,103 435,238 411,364 -9,45 -58,111 -121,158 -51,39 -204,117 -269,138 l -40,13 30,24 c 444,372 679,731 786,1198 l 22,100 3,1728 3,1728 33,-7 c 41,-10 77,-7 93,7 20,17 17,82 -5,110 -78,101 -66,199 31,259 63,39 105,83 130,138 16,36 17,46 6,69 -20,43 -52,53 -166,53 -128,0 -131,5 -76,109 70,134 135,150 302,76 97,-42 116,-40 143,18 33,75 18,144 -42,190 -54,40 -109,50 -236,42 -62,-3 -121,-4 -132,0 -43,13 -32,115 19,177 15,19 65,54 111,78 103,55 142,93 159,154 17,63 0,143 -40,186 -52,56 -93,38 -181,-81 -29,-39 -62,-74 -73,-79 -29,-11 -64,5 -109,48 -83,80 -87,131 -22,247 114,200 134,272 96,333 -41,65 -84,56 -141,-29 -23,-33 -48,-63 -56,-66 -34,-13 -165,148 -189,232 -17,57 -12,105 12,105 12,0 410,-92 454,-106 13,-3 21,21 47,133 18,76 32,141 32,144 0,4 -79,26 -175,50 -140,35 -174,46 -171,59 3,8 42,170 87,360 45,190 86,349 90,354 4,5 34,2 69,-7 l 61,-15 10,25 c 5,13 9,29 9,34 0,11 -2,11 37,0 31,-9 33,-8 39,26 7,38 -4,53 -40,53 -14,0 -17,5 -12,23 3,12 6,26 6,31 0,4 16,5 35,2 33,-7 36,-5 41,23 9,44 8,45 -25,54 -23,5 -29,12 -25,25 3,9 8,22 9,29 3,8 13,9 34,3 34,-10 36,-8 46,38 6,30 5,33 -25,38 -26,6 -31,11 -28,33 3,23 7,26 39,24 34,-2 37,1 43,29 9,44 8,48 -11,48 -32,0 -46,16 -39,44 5,22 10,25 37,19 34,-7 49,6 49,45 0,17 -7,24 -31,29 -25,5 -30,10 -25,27 3,12 6,25 6,30 0,5 16,6 35,3 34,-6 35,-5 45,36 6,23 15,57 20,76 5,19 8,36 6,38 -3,3 -389,-443 -408,-471 -4,-7 -40,-2 -105,13 -54,13 -101,25 -104,27 -3,2 12,78 34,170 30,129 37,168 27,174 -10,6 -8,15 7,36 46,66 34.7191,67.924 34.7191,67.924 18.6915,38.881 -183.5012,81.655 -231.7191,84.85 -30,8 -57,-8.774 -59,-8.774 -2,0 -1,-27 1,-60 4,-49 2,-60 -11,-58 -11,2 -24,-35 -55,-162 -22,-91 -42,-167 -43,-169 -5,-7 -203,42 -203,51 0,8 67,293 76,321 3,11 0,17 -10,17 -22,0 -20,7 9,42 l 31.4588,48.093 c 78.3756,74.441 -290.6491,107.172 -290.6491,107.172 C 7687.9619,11001 7694,10995 7704,10923 c 5,-37 3,-44 -9,-39 -10,3 -17,-2 -20,-17 -29,-128 -76,-311 -80,-315 -3,-3 -50,5 -105,18 -80,19 -99,27 -95,39 9,30 75,313 75,322 0,5 -7,9 -16,9 -12,0 -10,7 9,33 14,17 28,42 31,54 42.5834,76.408 -285.25,130.35 -286,92 l 4,-60 c 2,-48 0,-59 -13,-59 -12,0 -24,-38 -54,-162 -21,-90 -40,-165 -41,-167 -4,-5 -119,18 -149,29 l -22,8 18,73 c 10,40 17,75 15,76 -2,2 -59,17 -127,34 -67,16 -125,31 -127,34 -5,5 20,115 28,120 4,2 31,-2 61,-10 30,-8 59,-15 65,-15 9,0 34,69 34,93 0,3 -31,13 -70,22 -78,19 -74,12 -46,106 l 11,37 115,-28 c 63,-16 118,-26 121,-24 6,4 21,72 20,91 0,3 -50,19 -111,33 -61,15 -113,30 -116,33 -9,9 8,77 20,77 6,0 80,-16 164,-37 83,-20 155,-34 158,-30 9,9 67,258 61,264 -5,4 -196,54 -298,77 l -26,6 38,157 c 21,87 41.4016,177.409 41.4016,183.409 z M 4003,1520 c 19,-11 89,-45 157,-75 929,-417 2069,-416 2987,4 115,52 123,52 123,-5 1,-253 -1004,-449 -2020,-394 -887,49 -1441,242 -1310,458 11,17 22,32 24,32 3,0 20,-9 39,-20 z"
       id="path3731"
       inkscape:connector-curvature="0"
       sodipodi:nodetypes="ccccccccsccsccccccsccssccscccscccccccccsccccccccsccccccccscccccccscccccsccscccccccccccccccccccccccccsccccscsssccccccccccccscsccscsscccsccccccccccccccsssscscccssssscccscscccscccccccccscccccccccccccccccccccccccsccccccccccccccccccccsccccccccccccsssccsccccccccscccccsccccsccccsccccscccscsccccccccccccccccccccsccccccccccccccccccsccsscsscccsccscscccccccccccsccsccsccssccscscccsccccscsccccccsccssccccscccccccccsssccccsccssccccccccscccccss" />
    <path
       d="M897 11035 c-56 -119 -186 -454 -237 -610 -92 -286 -152 -551 -180 -800 -18 -167 -11 -468 15 -610 6 -29 4 -28 -44 22 -131 139 -279 346 -366 514 l-49 94 -7 -40 c-32 -185 -35 -575 -4 -782 82 -565 356 -928 782 -1035 131 -33 340 -31 476 5 487 129 808 545 783 1017 -16 314 -162 624 -443 945 l-43 48 0 -134 c0 -305 -44 -560 -109 -640 -18 -22 -18 -22 -68 72 -275 511 -445 1172 -471 1829 l-7 165 -28 -60z m173 -1860 c15 -149 58 -322 116 -467 56 -140 85 -193 96 -176 22 34 38 123 40 215 2 117 0 117 75 19 58 -77 108 -182 123 -264 45 -227 -103 -438 -342 -488 -224 -47 -415 92 -484 351 -18 71 -29 288 -17 363 l8 52 43 -72 c40 -69 130 -186 143 -187 3 -1 2 25 -3 57 -26 154 25 415 133 687 l43 110 7 -40 c4 -22 13 -94 19 -160z"
       id="path3733" />
    <path
       d="M1245 7689 c-137 -27 -255 -51 -261 -54 -8 -2 0 -61 26 -189 33 -164 35 -186 21 -190 -9 -3 -124 -26 -256 -52 -132 -25 -241 -47 -243 -48 -1 -2 128 -196 286 -432 l289 -429 34 4 c19 3 47 5 64 5 l29 1 29 -148 c17 -81 28 -150 25 -152 -3 -3 -85 -21 -184 -40 -98 -20 -186 -39 -195 -43 -14 -6 3 -102 141 -799 86 -436 159 -795 161 -798 3 -3 93 13 200 34 107 22 196 38 198 36 2 -2 18 -82 37 -177 35 -180 35 -187 -11 -188 -45 -1 -45 -8 -10 -189 19 -95 36 -175 37 -177 2 -1 21 1 43 6 22 5 43 6 47 2 3 -4 9 -28 13 -54 l7 -46 -43 -9 c-29 -6 -43 -14 -42 -24 1 -7 16 -88 34 -178 l32 -163 47 6 47 6 7 -37 c11 -67 9 -71 -34 -78 -27 -5 -40 -12 -40 -23 0 -9 15 -90 32 -180 l33 -163 46 6 46 6 10 -51 c6 -28 7 -52 4 -54 -3 -2 -23 -6 -43 -10 -21 -4 -38 -10 -38 -13 0 -22 64 -340 70 -346 4 -4 25 -4 48 1 l41 10 11 -51 c11 -54 5 -66 -35 -67 -46 -1 -47 -7 -10 -190 19 -95 35 -175 35 -177 0 -3 33 3 72 13 17 5 22 -5 34 -68 l6 -37 -41 -7 c-23 -4 -43 -9 -45 -13 -4 -5 8 -70 55 -299 l11 -53 46 3 46 3 29 -148 c18 -89 34 -147 41 -147 11 0 481 92 532 105 l21 5 -28 142 c-16 79 -27 148 -25 154 3 6 23 14 46 18 33 5 40 10 36 24 -3 9 -19 89 -36 177 -17 87 -32 161 -34 162 -2 2 -22 0 -45 -6 -22 -5 -43 -6 -45 -2 -2 3 -7 27 -11 53 -7 46 -6 47 21 53 66 15 64 -1 26 193 -19 97 -36 178 -36 179 -1 1 -21 -3 -45 -8 -24 -5 -45 -8 -47 -7 -1 2 -6 27 -10 55 l-6 52 41 7 c22 4 41 11 41 17 0 6 -14 87 -32 180 l-32 169 -48 -6 -47 -7 -6 38 c-4 21 -9 45 -11 54 -4 13 5 18 41 23 25 4 45 11 45 15 0 8 -55 288 -65 329 -5 21 -9 23 -50 16 -48 -7 -53 -1 -58 70 -2 27 2 30 37 38 22 5 41 10 43 12 4 3 -65 348 -71 353 -2 2 -22 0 -44 -6 -46 -10 -45 -10 -57 61 -7 35 -5 37 21 43 65 14 63 3 26 197 l-34 177 -27 -5 c-69 -14 -63 -25 -100 164 -18 95 -31 175 -28 179 4 3 93 23 198 44 106 22 193 40 194 41 3 5 -312 1588 -317 1593 -3 3 -93 -12 -202 -33 -195 -38 -196 -39 -201 -18 -13 54 -55 270 -55 281 0 7 26 17 60 24 33 7 60 13 60 14 0 1 47 229 104 507 57 278 103 506 101 508 -2 2 -117 -19 -256 -47 -139 -28 -254 -49 -256 -47 -2 1 -20 85 -40 184 -33 168 -38 182 -57 181 -12 0 -133 -23 -271 -50z"
       id="path3735" />
  </g>
</svg>
