<?xml version="1.0" encoding="UTF-8" standalone="no"?>
<svg
   xmlns:dc="http://purl.org/dc/elements/1.1/"
   xmlns:cc="http://creativecommons.org/ns#"
   xmlns:rdf="http://www.w3.org/1999/02/22-rdf-syntax-ns#"
   xmlns:svg="http://www.w3.org/2000/svg"
   xmlns="http://www.w3.org/2000/svg"
   xmlns:sodipodi="http://sodipodi.sourceforge.net/DTD/sodipodi-0.dtd"
   xmlns:inkscape="http://www.inkscape.org/namespaces/inkscape"
   version="1.0"
   width="947.000000pt"
   height="1280.000000pt"
   viewBox="0 0 1100.000000 1280.000000"
   preserveAspectRatio="xMidYMid meet"
   id="svg3799"
   sodipodi:docname="queen-black.svg"
   inkscape:version="0.92.4 (5da689c313, 2019-01-14)">
  <defs
     id="defs3803" />
  <sodipodi:namedview
     pagecolor="#ffffff"
     bordercolor="#666666"
     borderopacity="1"
     objecttolerance="10"
     gridtolerance="10"
     guidetolerance="10"
     inkscape:pageopacity="0"
     inkscape:pageshadow="2"
     inkscape:window-width="1920"
     inkscape:window-height="1001"
     id="namedview3801"
     showgrid="false"
     inkscape:zoom="0.2765625"
     inkscape:cx="-166.61343"
     inkscape:cy="1359.6347"
     inkscape:window-x="-9"
     inkscape:window-y="-9"
     inkscape:window-maximized="1"
     inkscape:current-layer="g3797" />
  <metadata
     id="metadata3775">
Created by potrace 1.15, written by Peter Selinger 2001-2017
<rdf:RDF>
  <cc:Work
     rdf:about="">
    <dc:format>image/svg+xml</dc:format>
    <dc:type
       rdf:resource="http://purl.org/dc/dcmitype/StillImage" />
  </cc:Work>
</rdf:RDF>
</metadata>
  <g
     transform="translate(0.000000,1280.000000) scale(0.100000,-0.100000)"
     fill="#000000"
     stroke="none"
     id="g3797">
    <path
       d="m 5002,12096 c -71,-13 -69,-9 -75,-104 -14,-213 -108,-422 -189,-422 -34,0 -93,71 -119,144 -26,72 -104,56 -104,56 l -151,-28 -61,-13 -5,-103 c -7,-160 -49,-227 -127,-200 -37,13 -97,98 -127,180 l -24.6079,66.824 L 3955,11665 l -97.6205,-17.392 c 0,0 -38.3795,-8.608 -63.3795,-12.608 -67,-10 -74,-14 -74,-47 0,-76 -54,-114 -160,-112 -77,2 -142,18 -349,85 -84,28 -155,48 -157,46 -3,-2 57,-205 132,-451 130,-429 135,-448 120,-471 -17,-26 -36,-33 -36,-15 0,23 -50,60 -80,60 -43,0 -65,-14 -80,-50 -18,-43 2,-88 47,-107 19,-7 33,-17 31,-21 -9,-21 -54,-82 -60,-82 -4,0 -10,9 -13,21 -8,25 -58,48 -91,41 -32,-6 -64,-48 -64,-84 0,-39 40,-78 80,-78 35,0 34,2 16,-41 -7,-19 -16,-42 -20,-53 -6,-18 -7,-18 -27,0 -43,39 -119,14 -134,-43 -15,-60 35,-110 99,-100 30,5 36,3 36,-12 0,-10 3,-32 6,-49 6,-31 6,-31 -28,-26 -80,13 -126,-89 -64,-142 15,-13 36,-24 47,-24 25,0 79,27 79,40 0,21 16,8 38,-30 21,-38 22,-40 4,-40 -11,0 -31,-9 -46,-21 -51,-40 -28,-128 38,-145 36,-9 85,21 93,56 3,17 7,30 10,30 7,0 103,-74 103,-80 0,-3 -10,-10 -22,-15 -78,-35 -47,-155 39,-155 42,0 83,40 83,81 0,16 2,29 5,29 3,0 37,-16 75,-35 61,-31 70,-39 76,-70 5,-31 1,-42 -44,-102 -311,-422 -525,-947 -617,-1514 -38,-236 -46,-332 -52,-619 -6,-269 4,-486 33,-725 21,-178 14,-165 79,-150 l 54,13 4,-1546 c 3,-1405 5,-1555 20,-1632 79,-396 254,-718 551,-1016 94,-93 223,-207 275,-241 2,-1 -11,-20 -28,-42 -72,-91 -89,-186 -47,-272 16,-34 16,-37 -3,-80 -26,-56 -26,-115 -2,-179 19,-50 19,-52 0,-93 -24,-54 -24,-114 0,-177 19,-50 19,-52 0,-93 -103,-228 201,-466 781,-612 74,-18 176,-41 225,-50 52,-10 98,-24 110,-35 47,-42 115,-53 165,-27 21,11 46,11 140,1 63,-7 167,-16 231,-20 l 116,-7 23,-46 c 22,-45 23,-46 32,-21 33,83 44,104 75,135 58,60 107,80 198,80 63,0 89,-5 121,-22 55,-29 121,-106 136,-157 17,-62 26,-64 48,-14 l 20,45 117,7 c 65,4 170,13 233,20 96,11 120,11 142,0 53,-27 126,-16 173,27 12,11 69,28 148,44 693,142 1053,385 958,645 -21,57 -21,60 -4,92 24,45 24,151 -1,197 -17,32 -17,35 1,74 10,24 18,64 18,97 0,33 -8,73 -18,97 -18,39 -18,42 -1,74 12,23 18,56 19,99 0,73 -25,126 -90,196 -20,21 -32,40 -28,44 193,157 328,292 440,443 125,169 226,355 278,517 9,30 21,59 25,64 5,5 61,-16 127,-47 207,-98 482,-211 491,-203 14,14 -94,812 -158,1165 -88,485 -215,1008 -336,1383 -20,60 -34,112 -31,114 2,3 69,-2 148,-11 79,-9 250,-19 381,-22 l 236,-6 7,79 c 9,91 -1,582 -15,794 -97,1402 -518,2514 -1247,3299 -184,198 -469,434 -672,557 l -80,49 -7,53 -6,53 53,58 c 59,64 69,70 69,43 0,-24 34,-60 63,-67 55,-14 115,46 101,100 -8,33 -50,65 -85,65 h -28 l 35,52 c 19,29 34,56 34,61 0,5 13,-5 29,-22 39,-41 82,-42 122,-2 38,39 38,74 -1,113 -26,26 -36,30 -66,25 l -35,-6 6,37 c 11,64 13,67 33,48 28,-24 79,-20 107,9 35,34 33,78 -5,117 -26,25 -36,29 -62,24 -18,-3 -40,-14 -50,-23 -17,-15 -18,-15 -18,3 -1,10 -7,36 -14,57 l -14,37 h 35 c 43,0 83,37 83,78 0,36 -32,78 -64,84 -34,7 -84,-17 -97,-45 l -11,-24 -39,42 c -43,46 -47,55 -24,55 9,0 27,11 40,25 67,66 -10,174 -93,131 -31,-16 -57,-69 -45,-89 4,-6 -9,-1 -28,11 -18,13 -44,28 -57,34 l -22,11 32,27 c 43,36 45,91 4,126 -31,28 -56,30 -95,9 -32,-16 -41,-33 -41,-76 v -29 l -34,16 c -39,19 -31,-40 -76,558 -16,219 -31,400 -33,402 -1,2 -61,-44 -132,-102 -218,-178 -343,-248 -407,-229 -30,9 -68,44 -79,73 -9,24 -27,26 -96,13 0,0 -89.8844,-17.956 -135,-26 -82,-12 -78,-8 -78,-99 0,-140 -39,-226 -103,-226 -54,0 -117,89 -171,244 -3,10 -12,16 -20,13 -7,-3 -35,-9 -61,-13 l -151,-29 -59,-10 -6,-92 c -8,-114 -29,-156 -77,-161 -85,-8 -231,145 -318,333 l -34,73 -62,-13 c 0,0 -103.7056,-21.079 -156,-29 z M 7496,1709 c 29,-22 55,-47 58,-55 3,-9 3,-14 -2,-12 -4,1 -49,18 -101,37 l -93,34 34,18 c 18,10 37,18 42,19 5,0 33,-18 62,-41 z m -3186,6 c 24,-13 24,-14 5,-21 -11,-4 -47,-18 -79,-30 -33,-13 -62,-21 -65,-18 -8,9 81,84 99,84 8,-1 26,-7 40,-15 z m 3023,-176 61,-31 -46,-24 -47,-24 -118,29 c -65,16 -145,35 -178,43 l -59,14 99,35 100,36 63,-24 c 35,-13 91,-37 125,-54 z m -2597,-2 c 4,-4 -1,-7 -12,-7 -11,0 -81,-16 -157,-35 l -138,-34 -44,21 c -25,12 -45,25 -45,29 0,4 48,27 106,52 l 106,45 88,-32 c 49,-18 92,-35 96,-39 z m 405,-97 c 427,-86 952,-86 1394,1 126,25 163,22 389,-32 90,-22 124,-34 113,-40 -23,-13 -206,-55 -342,-78 -177,-31 -361,-50 -531,-58 l -150,-6 -21,36 c -56,94 -200,94 -256,0 l -21,-36 -150,6 c -249,11 -530,49 -761,103 -60,15 -114,30 -118,34 -8,7 181,57 298,79 28,5 52,9 55,10 3,0 48,-8 101,-19 z m -281,-249 c 201,-34 401,-57 578,-67 l 123,-7 -43,-21 c -34,-17 -48,-33 -68,-74 l -25,-52 -60,6 c -265,26 -552,81 -740,141 -132,42 -287,112 -279,125 4,6 24,18 45,27 38,17 40,17 166,-16 70,-18 207,-46 303,-62 z m 2465,11 c -195,-98 -671,-209 -964,-224 -52,-3 -54,-2 -62,26 -11,38 -46,75 -92,96 l -37,17 122,7 c 275,15 638,69 873,129 l 130,33 50,-24 49,-25 z M 4310,1056 c 209,-73 548,-145 833,-177 l 108,-12 -38,-21 c -25,-14 -46,-37 -61,-67 l -23,-46 -107,19 c -362,64 -664,175 -799,294 -52,45 -71,74 -35,55 9,-5 64,-25 122,-45 z m 1448,25 c 59,-59 155,-60 214,0 26,25 37,29 86,29 h 57 l -31,-19 c -43,-26 -74,-69 -74,-102 0,-37 -15,-41 -160,-37 l -114,3 -7,34 c -9,45 -38,82 -80,103 l -34,18 h 57 c 49,0 60,-4 86,-29 z m 1754,-31 C 7385,936 7119,833 6777,765 c -168,-33 -168,-33 -192,17 -14,28 -34,49 -62,64 l -41,21 106,13 c 296,34 626,104 833,176 57,20 111,40 119,44 35,20 21,-6 -28,-50 z M 5515,829 c 36,-23 83,-24 132,-4 27,12 79,15 223,15 144,0 196,-3 223,-15 49,-20 85,-19 131,5 21,10 70,22 110,25 l 71,7 -33,-21 c -32,-20 -71,-88 -72,-122 0,-12 -14,-18 -61,-23 -117,-12 -164,-8 -218,20 -100,49 -218,49 -314,-1 -51,-26 -108,-31 -215,-19 -46,6 -53,10 -58,33 -9,46 -38,94 -69,113 l -30,19 75,-7 c 44,-4 87,-15 105,-25 z M 4305,788 c 190,-68 499,-137 760,-169 65,-7 118,-20 153,-37 47,-22 56,-23 95,-12 49,14 55,14 166,12 75,-2 82,-4 76,-19 -5,-10 -15,-45 -24,-78 l -16,-60 -90,7 c -49,3 -133,12 -187,18 l -96,12 -11,43 c -20,82 -109,131 -191,106 -35,-10 -82,-52 -92,-82 -9,-28 -324,72 -479,152 -60,31 -119,70 -155,105 -33,31 -50,52 -39,48 11,-3 70,-24 130,-46 z m 3213,-2 c -66,-60 -212,-140 -340,-185 -95,-33 -278,-85 -282,-79 -1,2 -12,17 -24,34 -25,36 -77,64 -118,64 -69,0 -154,-76 -154,-137 0,-18 -11,-21 -102,-32 -141,-17 -288,-28 -293,-22 -3,2 -5,17 -5,31 0,15 -7,47 -15,70 -8,23 -15,44 -15,45 0,1 46,5 102,7 75,4 111,1 136,-9 38,-16 78,-11 132,17 20,10 101,27 190,39 279,39 555,104 736,174 49,19 94,35 99,35 6,1 -16,-23 -47,-52 z"
       id="path3777"
       inkscape:connector-curvature="0"
       sodipodi:nodetypes="ccscccccccccccscccccsscccsccsscccccscccsscscccsscssscccccccccccccccccccccccccccccscccccccccccccscccccccccccccsccccccccccsccsccsccscccccccccccssccccscccccccccscccccccccssccccccccccccccccccccccccccccccccccccsscccscccscccccccccccccccccccccccccccccccccccccccccccscccccccsccscccccsccccccccccccscccccccccccccccccccccccccccccccccccccssccsssccccccc" />
    <path
       d="M1110 11568 c-22 -35 -54 -96 -71 -137 -107 -257 -67 -469 130 -673 46 -48 88 -85 94 -81 5 3 29 47 53 97 102 217 96 432 -18 646 -36 68 -134 210 -144 210 -3 0 -22 -28 -44 -62z"
       id="path3779" />
    <path
       d="M1990 11407 c-208 -91 -350 -253 -409 -467 -20 -72 -48 -286 -39 -296 9 -9 163 48 243 89 54 28 103 65 151 112 119 117 164 233 164 423 0 122 -7 172 -24 172 -6 0 -45 -15 -86 -33z"
       id="path3781" />
    <path
       d="M234 11135 c28 -270 197 -475 444 -539 66 -18 270 -42 278 -33 9 9 -46 158 -87 238 -121 233 -319 365 -588 393 l-54 5 7 -64z"
       id="path3783" />
    <path
       d="M2070 10606 c-85 -19 -136 -38 -218 -81 -73 -38 -202 -130 -202 -143 0 -16 162 -105 247 -135 78 -27 101 -31 198 -32 176 0 282 46 429 187 64 62 77 79 68 91 -16 19 -161 86 -224 103 -79 21 -222 26 -298 10z"
       id="path3785" />
    <path
       d="M1220 10591 c-85 -26 -161 -103 -186 -189 -51 -174 74 -351 250 -355 114 -2 218 60 267 161 52 105 20 246 -72 325 -67 58 -177 82 -259 58z"
       id="path3787" />
    <path
       d="M455 10394 c-11 -2 -45 -9 -75 -15 -110 -22 -255 -106 -343 -197 l-38 -39 48 -31 c139 -89 263 -126 402 -120 105 5 171 26 278 89 60 36 223 186 223 206 0 14 -134 67 -222 88 -64 16 -237 28 -273 19z"
       id="path3789" />
    <path
       d="M1259 9991 c-90 -29 -156 -71 -222 -141 -71 -75 -112 -152 -133 -248 -17 -85 -17 -120 1 -207 56 -268 312 -447 580 -405 196 30 370 185 420 375 19 74 19 193 0 264 -47 178 -201 330 -375 370 -71 16 -207 12 -271 -8z"
       id="path3791" />
    <path
       d="M2180 9881 c-59 -14 -88 -29 -134 -71 -116 -107 -121 -277 -13 -396 l35 -39 -22 -70 c-35 -109 -84 -192 -161 -270 -207 -211 -503 -263 -771 -134 -101 48 -222 157 -276 249 l-37 63 27 46 c24 40 27 57 27 131 0 75 -3 91 -27 132 -37 62 -97 111 -159 131 -64 21 -101 21 -170 1 -72 -21 -159 -107 -178 -176 -17 -59 -10 -161 13 -210 57 -118 205 -183 329 -145 l47 15 34 -61 c18 -34 146 -282 284 -552 192 -377 252 -502 257 -540 3 -27 8 -60 10 -71 4 -18 -1 -22 -33 -27 l-37 -6 14 -122 15 -121 38 4 c37 3 38 3 44 -39 8 -51 1 -63 -37 -63 -16 0 -29 -3 -29 -7 0 -5 7 -55 15 -113 8 -58 15 -110 15 -117 0 -7 13 -9 40 -6 39 5 40 5 40 -23 0 -16 3 -39 6 -51 6 -20 3 -23 -25 -23 -18 0 -34 -6 -37 -14 -3 -8 1 -63 8 -123 l14 -108 36 1 c39 1 48 -11 48 -67 0 -27 -15 -39 -51 -39 -10 0 -19 -3 -19 -7 0 -5 7 -53 15 -108 8 -55 15 -106 15 -112 0 -8 15 -13 40 -13 32 0 40 -4 40 -19 0 -10 3 -33 6 -50 6 -30 6 -31 -30 -31 -42 0 -42 -2 -25 -127 17 -131 15 -126 53 -119 38 7 46 -3 46 -59 0 -31 -3 -35 -36 -41 -30 -5 -35 -10 -31 -28 3 -11 11 -65 17 -118 l12 -98 38 0 c36 0 38 -2 44 -41 8 -50 3 -59 -35 -59 -34 0 -34 -4 -19 -113 21 -149 16 -137 58 -134 l37 2 3 -46 c3 -46 3 -47 -33 -53 -27 -5 -35 -11 -31 -24 2 -9 10 -64 17 -120 l12 -104 38 4 c37 3 37 3 44 -39 8 -53 2 -63 -36 -63 -34 0 -34 3 -14 -135 8 -55 15 -103 15 -107 0 -3 17 -4 38 -1 l37 5 23 -182 c13 -100 22 -183 20 -185 -2 -2 -116 -18 -253 -36 -138 -18 -253 -35 -258 -39 -4 -4 116 -188 266 -411 308 -455 292 -410 158 -424 -39 -4 -71 -10 -71 -13 0 -3 74 -150 165 -327 156 -305 164 -323 142 -328 -12 -3 -66 -11 -119 -17 -54 -7 -98 -14 -98 -16 0 -2 86 -171 191 -376 l191 -373 61 -455 c33 -250 62 -457 63 -459 3 -3 626 78 630 82 1 1 -25 205 -58 452 l-60 450 88 413 c48 227 84 415 81 419 -4 3 -56 -1 -117 -9 -60 -8 -112 -13 -113 -11 -2 1 30 160 71 353 41 193 72 353 69 357 -3 3 -45 0 -92 -6 -48 -7 -88 -11 -89 -9 -1 2 69 209 156 462 87 252 156 461 153 464 -3 3 -120 -10 -260 -28 -141 -18 -257 -31 -259 -29 -3 4 -47 346 -46 362 0 4 16 7 36 7 l36 0 -6 43 c-3 23 -11 80 -17 125 l-12 84 -33 -7 c-37 -7 -39 -5 -47 57 -5 35 -4 36 29 42 40 8 40 14 21 156 l-12 85 -36 3 c-39 3 -49 18 -49 75 0 24 3 27 35 27 19 0 35 3 35 8 0 4 -7 54 -15 112 -8 58 -15 111 -15 118 0 9 -11 10 -40 6 -39 -6 -40 -6 -40 22 0 16 -3 39 -6 52 -5 18 -2 22 17 22 50 0 53 9 40 116 -17 138 -16 137 -57 132 -31 -4 -34 -2 -40 28 -10 53 -2 69 35 72 31 3 33 5 27 35 -3 18 -11 73 -17 123 l-11 92 -39 -5 c-34 -5 -39 -3 -39 14 0 11 -3 35 -6 52 -6 29 -5 31 24 31 17 0 34 5 37 10 6 10 -9 162 -21 219 -4 21 -9 23 -39 18 -37 -6 -37 -7 -48 66 -4 25 -1 28 34 33 38 6 39 7 33 43 -3 20 -11 74 -17 121 l-12 85 -37 -3 c-27 -3 -38 1 -38 10 0 7 -3 30 -6 51 l-7 37 37 0 c42 0 42 1 26 113 -22 150 -17 138 -58 135 l-37 -3 -5 47 -6 47 38 6 c30 5 38 11 34 23 -3 10 -10 63 -17 120 l-12 102 -38 0 c-38 0 -38 0 -44 48 -3 26 -8 55 -10 66 -2 10 54 290 126 622 71 332 129 606 129 608 0 2 33 6 73 8 87 6 137 29 194 90 96 105 95 260 -2 376 -51 61 -174 101 -255 83z"
       id="path3793" />
    <path
       d="M5780 352 c-91 -50 -125 -155 -80 -247 33 -68 86 -100 165 -100 49 0 69 5 97 24 109 75 116 228 13 307 -49 37 -142 45 -195 16z"
       id="path3795" />
  </g>
</svg>
